<?xml version="1.0" encoding="UTF-8"?>
<svg width="60px" height="60px" viewBox="0 0 60 60" version="1.1" xmlns="http://www.w3.org/2000/svg" xmlns:xlink="http://www.w3.org/1999/xlink">
    <!-- Generator: Sketch 51.3 (57544) - http://www.bohemiancoding.com/sketch -->
    <title>037 - Unicorn Coder</title>
    <desc>Created with Sketch.</desc>
    <defs></defs>
    <g id="Page-1" stroke="none" stroke-width="1" fill="none" fill-rule="evenodd" stroke-linecap="round" stroke-linejoin="round">
        <g id="037---Unicorn-Coder" transform="translate(0.000000, 1.000000)" stroke="#000000" stroke-width="2">
            <path d="M9.179,54 C16.033,53.875 19.011,47 22.969,47 C25.969,47 30.958,46 32.955,46 C32.955,46 34.669,52.866 37.303,57.056 C37.6694924,57.6422125 38.3116533,57.9988006 39.003,58 L57,58 C58.1045695,58 59,57.1045695 59,56 L59,29 C59,29 55.159,22.236 52.927,20 C46.935,14 37.948,14 37.948,14 C37.948,14 36.186,3.439 31.529,0.067 C31.4261794,-0.00337409981 31.2947879,-0.0171066095 31.1796378,0.0304860611 C31.0644878,0.0780787316 30.9811321,0.180568367 30.958,0.303 C30.549,2.318 29.107,9.734 29.958,14.003 C29.958,14.003 24.965,14.003 22.968,15.003 C22.968,15.003 21.968,20.003 15.978,20.003 C12.978,25.003 10.266,28.442 7.989,33.003 C5.597,37.794 -1.092,38.281 1.646,48.203 C2.55054203,51.6208988 5.64343389,54.0010255 9.179,54 Z" id="Shape"></path>
            <path d="M1.609,0.073 C1.45329616,-0.0359082002 1.24142229,-0.0149347537 1.11009281,0.122386945 C0.978763334,0.259708644 0.967257669,0.472306955 1.083,0.623 L16,20 C22,20 23,15 23,15 L1.609,0.073 Z" id="Shape"></path>
            <path d="M33,46 C38,46 41,41 42,39" id="Shape"></path>
            <polyline id="Shape" points="22 24 17 28 22 32"></polyline>
            <polyline id="Shape" points="34 24 39 28 34 32"></polyline>
            <path d="M30,21 L26,35" id="Shape"></path>
            <path d="M6,43 C6,41.8954305 6.8954305,41 8,41" id="Shape"></path>
            <path d="M18.688,11.991 L22.988,14.991 C25,14 29.959,14 29.959,14 C29.6259774,11.742019 29.6034351,9.449092 29.892,7.185 C24.044,7.837 20.531,10.218 18.688,11.991 Z" id="Shape"></path>
            <path d="M36.054,7.082 C36.8823417,9.32948652 37.5160063,11.6440019 37.948,14 C37.948,14 46.935,14 52.927,20 C55.159,22.236 59,29 59,29 L59,18.432 C58.9996586,18.1123095 58.9232182,17.7972928 58.777,17.513 C57.75,15.5 52.788,7.917 36.054,7.082 Z" id="Shape"></path>
        </g>
    </g>
</svg>